<?xml version="1.0" encoding="utf-8"?>
<!-- Generator: Adobe Illustrator 22.1.0, SVG Export Plug-In . SVG Version: 6.00 Build 0)  -->
<svg version="1.1" id="Capa_1" xmlns="http://www.w3.org/2000/svg" xmlns:xlink="http://www.w3.org/1999/xlink" x="0px" y="0px"
	 viewBox="0 0 80 102" style="enable-background:new 0 0 80 102;" xml:space="preserve">
<style type="text/css">
	.st0{fill:#F7A64F;}
	.st1{fill:#FFFFFF;}
	.st2{fill:#0161A8;}
</style>
<g>
	<g id="LWPOLYLINE_7_">
		<path class="st0" d="M39.9,10.5l-4.2,2.8c-0.1,0.1-0.2,0.1-0.3,0c-0.2-0.1-0.3-0.3-0.2-0.4l1.4-4.1c0-0.1,0-0.3-0.1-0.4l-2.9-2.9
			c0,0-0.1-0.1-0.1-0.2c0-0.2,0.1-0.4,0.3-0.4l3.6-0.7c0.1,0,0.2-0.1,0.2-0.2l2.2-3.7c0,0,0.1-0.1,0.1-0.1c0.2-0.1,0.4,0,0.5,0.1
			l2.3,3.9L46.4,5c0.1,0,0.1,0,0.2,0.1c0.1,0.1,0.1,0.4,0,0.5l-2.9,2.9c-0.1,0.1-0.1,0.2-0.1,0.4l1.4,4.1c0,0.1,0,0.2,0,0.3
			c-0.1,0.2-0.3,0.2-0.5,0.1l-4.2-2.8C40.2,10.4,40,10.4,39.9,10.5z"/>
	</g>
	<g>
		<g id="LWPOLYLINE_11_">
			<path class="st1" d="M4,32.3l35.8,38.3c0.2,0.2,0.5,0.2,0.6,0c0,0,0,0,0,0l35.8-38.3c0.1-0.1,0.2-0.1,0.3-0.1
				c0.3,0,0.5,0.2,0.4,0.5c-0.8,26.6-14.5,51.1-36.7,65.8c-0.2,0.1-0.4,0.1-0.5,0C17.7,83.7,4,59.2,3.2,32.6c0-0.1,0-0.3,0.1-0.3
				C3.5,32.1,3.8,32.1,4,32.3"/>
		</g>
		<g id="LWPOLYLINE_9_">
			<path class="st1" d="M7.2,22.7c5.9,0.5,11.8-1.6,16.2-5.7c9.3,9,24.2,9,33.5,0c4.3,4.1,10.2,6.1,16.2,5.7c0.1,0,0.3,0,0.3,0.1
				c0.2,0.2,0.2,0.5,0,0.6L40.4,58.8c0,0,0,0,0,0c-0.2,0.2-0.5,0.2-0.6,0L6.8,23.5c-0.1-0.1-0.1-0.2-0.1-0.3
				C6.7,22.9,6.9,22.7,7.2,22.7"/>
		</g>
		<g id="LWPOLYLINE_2_">
			<path class="st2" d="M34.4,86.3c0.2,0.2,0.5,0.2,0.6,0c0.1-0.1,0.1-0.2,0.1-0.3V70.8c0-0.1,0.1-0.2,0.1-0.3
				c0.2-0.2,0.5-0.2,0.6,0l2.7,2.9c0.1,0.1,0.1,0.2,0.1,0.3v19.9c0,0.1,0,0.2-0.1,0.3c-0.1,0.2-0.4,0.2-0.6,0.1
				c-12.4-9.1-21.8-21.6-27.2-36c0,0,0,0,0,0c-0.1-0.2,0-0.5,0.3-0.6l2.5-0.9c0.2-0.1,0.5,0,0.6,0.3C18.5,68,25.4,78.1,34.4,86.3z"
				/>
		</g>
		<path class="st2" d="M4,32.2l35.8,38.3c0.2,0.2,0.5,0.2,0.6,0c0,0,0,0,0,0l35.8-38.3c0.1-0.1,0.2-0.1,0.3-0.1
			c0.3,0,0.5,0.2,0.4,0.5c-0.8,26.6-14.5,51.1-36.7,65.8c-0.2,0.1-0.4,0.1-0.5,0C17.7,83.7,4,59.2,3.2,32.6c0-0.1,0-0.3,0.1-0.3
			C3.5,32.1,3.8,32.1,4,32.2 M78.4,18.7c-7.4,3.1-16,1-21.2-5.2c-0.2-0.2-0.5-0.2-0.6-0.1c0,0,0,0-0.1,0.1c-0.8,0.9-1.7,1.8-2.6,2.6
			c-9.1,7.6-22.6,6.5-30.2-2.6c-0.2-0.2-0.5-0.2-0.6-0.1c0,0,0,0-0.1,0.1c-5.2,6.2-13.8,8.3-21.2,5.2c-0.2-0.1-0.5,0-0.6,0.2
			c0,0,0,0.1,0,0.1C-3.1,51.8,12,84,39.9,101.6c0.1,0.1,0.3,0.1,0.5,0C68.2,84,83.3,51.8,79,19.1c0-0.3-0.3-0.4-0.5-0.4
			C78.5,18.7,78.4,18.7,78.4,18.7z M7.2,22.7c5.9,0.5,11.8-1.6,16.2-5.7c9.3,9,24.2,9,33.5,0c4.3,4.1,10.2,6.1,16.2,5.7
			c0.1,0,0.3,0,0.3,0.1c0.2,0.2,0.2,0.5,0,0.6L40.4,58.8c0,0,0,0,0,0c-0.2,0.2-0.5,0.2-0.6,0L6.8,23.5c-0.1-0.1-0.1-0.2-0.1-0.3
			C6.7,22.9,6.9,22.7,7.2,22.7"/>
		<path class="st2" d="M49,40.4l2.2-2.3c0.2-0.2,0.2-0.5,0-0.6c-0.1-0.1-0.2-0.1-0.3-0.1h-5.4c-0.3,0-0.5,0.2-0.5,0.5v12
			c0,0.1,0,0.2-0.1,0.3l-2.7,2.9c-0.1,0.1-0.2,0.1-0.3,0.1c-0.3,0-0.5-0.2-0.5-0.5V27c0-0.3,0.2-0.5,0.5-0.5h23.9
			c0.1,0,0.2,0,0.3,0.1c0.2,0.2,0.2,0.5,0,0.6L51.7,42.8c-0.2,0.2-0.5,0.2-0.6,0L49.1,41C48.9,40.8,48.9,40.6,49,40.4z M45,33.2
			c0,0.3,0.2,0.5,0.5,0.5h9.6c0.1,0,0.2-0.1,0.3-0.1l2.5-2.7c0.2-0.2,0.2-0.5,0-0.6c-0.1-0.1-0.2-0.1-0.3-0.1H45.5
			c-0.3,0-0.5,0.2-0.5,0.5V33.2z"/>
		<g id="LWPOLYLINE_6_">
			<path class="st2" d="M59.8,60C59.8,60,59.8,60,59.8,60c0.1,0.2,0,0.5-0.2,0.6c-5.6,3-10.2,7.6-13.4,13c-0.3,0.5-0.2,1.1,0.3,1.4
				c0.4,0.2,0.9,0.2,1.2-0.1c3.2-2.9,6.2-5.9,9.1-9.1c1.4-1.3,3.5-1.5,5-0.4c1.8,1.2,2.3,3.7,1.1,5.6c-5.4,8.9-12.4,16.6-20.8,22.7
				c-0.1,0.1-0.2,0.1-0.3,0.1c-0.3,0-0.5-0.2-0.5-0.5v-3c0-0.2,0.1-0.3,0.2-0.4c7.3-5.1,13.4-11.7,18-19.3c0.3-0.6,0.1-1.3-0.4-1.6
				c-0.5-0.3-1.2-0.2-1.5,0.3c-2.7,3.6-5.9,6.9-9.5,9.7c0,0,0,0-0.1,0c-1.7,1.2-4,0.8-5.2-0.9c-1.1-1.8-1.1-4-0.1-5.8
				c3.5-6.2,8.7-11.4,14.9-15.1c0,0,0,0,0,0c0.2-0.1,0.5-0.1,0.6,0.2L59.8,60z"/>
		</g>
		<g id="LWPOLYLINE_8_">
			<path class="st2" d="M38.8,52.6v-3.9c0-0.1,0-0.2-0.1-0.3L22.3,30.9c-0.1-0.1-0.1-0.2-0.1-0.3c0-0.3,0.2-0.5,0.5-0.5h15.7
				c0.3,0,0.5-0.2,0.5-0.5V27c0-0.3-0.2-0.5-0.5-0.5H14.4c-0.3,0-0.5,0.2-0.5,0.5c0,0.1,0,0.2,0.1,0.3L38,52.9
				c0.2,0.2,0.5,0.2,0.6,0C38.7,52.8,38.8,52.7,38.8,52.6z"/>
		</g>
	</g>
</g>
</svg>
